<svg width="500" height="500" viewBox="0 0 500 500" fill="none" xmlns="http://www.w3.org/2000/svg">
<g filter="url(#filter0_b_1904_21981)">
<path d="M0 0H500V500H0V0Z" fill="#080E0D"/>
</g>
<path d="M407.05 389.861C400.026 400.537 393.005 408.227 385.982 412.936C378.958 417.645 369.647 420 358.043 420C345.523 420 335.142 416.233 326.898 408.698C318.959 401.163 313.005 387.978 309.036 369.141L298.96 322.05C295.296 305.725 291.784 293.168 288.425 284.377C285.372 275.587 280.639 268.523 274.227 263.186C267.815 257.849 258.808 255.18 247.205 255.18H203.694V363.49C203.694 375.421 204.61 384.055 206.442 389.39C208.274 394.728 211.633 398.338 216.518 400.222C221.709 402.105 229.8 403.363 240.792 403.989V413.407C226.747 412.465 207.358 411.994 182.625 411.994C156.366 411.994 136.824 412.465 124 413.407V403.989C134.992 403.363 142.931 402.105 147.817 400.222C153.007 398.338 156.519 394.728 158.351 389.39C160.183 384.055 161.099 375.421 161.099 363.49V129.917C161.099 117.987 160.183 109.354 158.351 104.017C156.519 98.6797 153.007 95.0692 147.817 93.1855C142.931 91.3019 134.992 90.0462 124 89.4182V80C136.824 80.9418 155.45 81.4127 179.877 81.4127L229.342 80.9418C235.144 80.6279 241.708 80.4709 249.037 80.4709C284.456 80.4709 311.631 88.1625 330.562 103.546C349.799 118.615 359.417 138.237 359.417 162.41C359.417 174.654 356.515 187.055 350.715 199.612C345.219 211.856 335.754 223.001 322.318 233.047C309.189 242.78 291.937 249.373 270.563 252.826L276.059 253.768C296.212 257.221 310.868 263.5 320.028 272.604C329.188 281.709 335.905 296.149 340.181 315.928L351.631 363.961C354.683 378.404 357.89 388.449 361.249 394.1C364.609 399.751 369.189 402.576 374.989 402.576C380.181 402.576 384.454 401.163 387.814 398.338C391.478 395.512 395.6 390.961 400.18 384.681L407.05 389.861ZM237.586 89.4182C228.121 89.4182 220.945 90.5171 216.06 92.7146C211.48 94.9124 208.274 98.8365 206.442 104.488C204.61 110.139 203.694 118.615 203.694 129.917V245.762H234.38C264.609 245.762 285.372 238.855 296.67 225.042C307.967 211.229 313.616 192.078 313.616 167.59C313.616 141.847 307.662 122.382 295.754 109.197C283.845 96.011 264.456 89.4182 237.586 89.4182Z" fill="#FBF9F7"/>
<defs>
<filter id="filter0_b_1904_21981" x="-10" y="-10" width="520" height="520" filterUnits="userSpaceOnUse" color-interpolation-filters="sRGB">
<feFlood flood-opacity="0" result="BackgroundImageFix"/>
<feGaussianBlur in="BackgroundImage" stdDeviation="5"/>
<feComposite in2="SourceAlpha" operator="in" result="effect1_backgroundBlur_1904_21981"/>
<feBlend mode="normal" in="SourceGraphic" in2="effect1_backgroundBlur_1904_21981" result="shape"/>
</filter>
</defs>
</svg>
