<svg xmlns="http://www.w3.org/2000/svg" xmlns:xlink="http://www.w3.org/1999/xlink" version="1.1" id="id642c47a5257b" width="24" height="24" viewBox="0 0 24 24" xml:space="preserve" style="width:24px;height:24px;" ><path d="M0,0h24v24H0V0z" fill="none"></path><!--Generated by IJSVG (https://github.com/iconjar/IJSVG)--><g stroke-linecap="round" stroke-width="1.5" stroke="#FFFFFF" fill="none" stroke-linejoin="round"><path d="M3,18v0c0,-2.209 1.791,-4 4,-4h4c2.209,0 4,1.791 4,4v0"></path><path d="M16,4.651c1.381,0 2.5,1.119 2.5,2.5c0,1.381 -1.119,2.5 -2.5,2.5"></path><path d="M11.4049,4.99613c1.32817,1.32817 1.32817,3.48157 0,4.80974c-1.32817,1.32817 -3.48157,1.32817 -4.80974,0c-1.32817,-1.32817 -1.32817,-3.48157 0,-4.80974c1.32817,-1.32817 3.48157,-1.32817 4.80974,0"></path><path d="M17,13c2.209,0 4,1.791 4,4v0"></path></g><path fill="none" d="M0,0h24v24h-24v-24Z"></path></svg>