<svg width="20" height="20" viewBox="0 0 20 20" fill="none" xmlns="http://www.w3.org/2000/svg">
<g id="&#208;&#161;&#208;&#187;&#208;&#190;&#208;&#185;_1" clip-path="url(#clip0_3119_8927)">
<path id="Vector" fill-rule="evenodd" clip-rule="evenodd" d="M3.95103 2.0371C5.57833 0.783197 7.60507 0.126719 9.64571 0.019043C9.57103 1.87212 9.59882 3.76166 9.08823 5.55916C8.90163 6.26657 8.56368 6.92503 8.09771 7.48905C7.63174 8.05307 7.04887 8.5092 6.38937 8.82592C4.38173 9.69428 2.14311 9.62828 0 9.71512C0 6.72797 1.56304 3.81029 3.95103 2.0371Z" fill="#080E0D"/>
<path id="Vector_2" fill-rule="evenodd" clip-rule="evenodd" d="M10.2539 0C12.0601 0.151094 13.8697 0.625217 15.3842 1.65509C16.7327 2.53309 17.848 3.72517 18.6345 5.12904C19.421 6.53291 19.8551 8.10664 19.8996 9.71518C17.9163 9.64571 15.8757 9.6735 13.9757 9.02049C13.2871 8.78225 12.6603 8.39368 12.1406 7.88301C11.6209 7.37233 11.2214 6.75236 10.9712 6.06808C10.2713 4.13164 10.2886 2.03196 10.2539 0Z" fill="#080E0D"/>
<path id="Vector_3" fill-rule="evenodd" clip-rule="evenodd" d="M14.3378 10.8754C16.1509 10.3769 18.0439 10.3543 19.9092 10.3179C19.8359 12.878 18.7733 15.3101 16.9446 17.1032C15.1527 18.8724 12.7625 19.9054 10.2461 19.9983C10.2947 17.9299 10.26 15.7868 11.0137 13.8243C11.5504 12.3741 12.8598 11.2939 14.3308 10.8719L14.3378 10.8754Z" fill="#080E0D"/>
<path id="Vector_4" fill-rule="evenodd" clip-rule="evenodd" d="M0 10.3213C2.25773 10.4012 4.66134 10.297 6.71761 11.3772C8.12435 12.0962 8.95276 13.5915 9.248 15.0973C9.58492 16.7089 9.59535 18.3623 9.63703 20C8.30284 19.9487 6.99195 19.6342 5.77978 19.0744C4.5676 18.5147 3.47805 17.7208 2.57381 16.7384C1.00208 14.9948 0 12.678 0 10.3213Z" fill="#080E0D"/>
</g>
<defs>
<clipPath id="clip0_3119_8927">
<rect width="19.9097" height="20" fill="white"/>
</clipPath>
</defs>
</svg>
