<svg width="244" height="44" viewBox="0 0 244 44" fill="none" xmlns="http://www.w3.org/2000/svg">
<path d="M219.835 15.0295C221.081 14.5502 222.328 14.8378 223.574 15.1254C223.19 16.084 222.903 17.0427 222.615 18.0014C221.561 17.7138 220.314 17.4262 219.26 18.0014C218.11 18.5765 217.63 19.9187 217.63 21.0691C217.63 23.8492 217.63 26.5334 217.63 29.3135C216.576 29.3135 215.521 29.3135 214.467 29.3135C214.467 24.6161 214.467 19.8228 214.467 15.1254C215.521 15.1254 216.576 15.1254 217.534 15.1254C217.534 15.6047 217.534 16.1799 217.534 16.7551C218.205 15.9882 218.876 15.2212 219.835 15.0295ZM201.716 17.9055C198.745 18.96 198.074 23.3698 200.183 25.4789C201.621 27.0128 204.209 27.2045 205.839 25.8624C207.468 24.712 207.852 22.4112 207.277 20.5897C206.606 18.2889 203.826 17.0427 201.716 17.9055ZM198.457 16.2758C200.95 14.2626 205.168 14.1667 207.373 16.7551C207.373 16.2758 207.277 15.7006 207.277 15.1254C208.331 15.1254 209.386 15.1254 210.44 15.1254C210.44 19.8228 210.44 24.6161 210.44 29.3135C209.386 29.3135 208.331 29.3135 207.277 29.3135C207.277 28.8342 207.373 28.259 207.373 27.6838C205.072 30.3681 200.566 30.1763 198.169 27.8755C194.814 24.9037 195.006 19.0559 198.457 16.2758ZM184.173 16.3716C187.049 14.1667 191.363 14.2626 194.239 16.4675C193.664 17.2344 193.184 18.0972 192.705 18.96C191.555 18.1931 190.308 17.6179 188.87 17.7138C186.857 17.6179 185.036 19.3435 184.748 21.3567C184.748 22.4112 184.652 23.6574 185.323 24.712C186.09 26.15 187.816 26.9169 189.446 26.7252C190.596 26.6293 191.746 26.15 192.705 25.4789C193.184 26.3417 193.664 27.2045 194.239 27.9714C193.376 28.6425 192.417 29.2177 191.363 29.5053C188.966 29.7929 186.378 29.7929 184.461 28.3549C180.626 25.6706 180.53 19.2476 184.173 16.3716ZM176.887 15.0295C178.133 14.646 179.38 14.8378 180.53 15.1254C180.338 16.084 179.955 17.0427 179.667 18.0014C178.517 17.7138 177.079 17.4262 176.024 18.0972C175.066 18.7683 174.682 20.0145 174.682 21.0691C174.682 23.8492 174.682 26.6293 174.682 29.3135C173.628 29.3135 172.573 29.3135 171.615 29.3135C171.615 24.6161 171.615 19.8228 171.615 15.1254C172.573 15.1254 173.628 15.1254 174.586 15.1254C174.586 15.7006 174.586 16.1799 174.586 16.7551C175.257 16.084 175.928 15.2212 176.887 15.0295ZM160.302 17.7138C158.864 18.1931 158.002 19.5352 157.81 20.9732C160.302 20.9732 162.699 20.9732 165.192 20.9732C165 20.0145 164.712 18.8641 163.754 18.2889C162.891 17.4262 161.453 17.522 160.302 17.7138ZM157.235 16.1799C159.056 14.7419 161.74 14.4543 163.945 15.1254C165.863 15.7964 167.301 17.4262 167.972 19.2476C168.451 20.5897 168.355 22.0277 168.355 23.4657C164.808 23.4657 161.261 23.4657 157.81 23.4657C158.002 24.9037 158.96 26.15 160.398 26.6293C162.316 27.3962 164.52 26.5334 166.15 25.4789C166.725 26.15 167.301 26.9169 167.588 27.6838C165.958 29.2177 163.658 29.7929 161.549 29.6011C159.344 29.697 157.235 28.6425 155.988 26.9169C153.688 23.7533 154.167 18.7683 157.235 16.1799ZM127.42 17.1386C128.187 15.7964 129.721 15.1254 131.159 14.9336C133.652 14.5502 136.336 14.9336 138.541 16.1799C138.157 17.0427 137.678 17.9055 137.199 18.6724C135.377 17.8096 133.364 17.2344 131.351 17.7138C130.584 17.9055 129.913 18.5765 130.105 19.4393C130.296 20.398 131.447 20.398 132.214 20.5897C134.227 20.8773 136.432 20.9732 137.966 22.5071C139.499 24.1368 139.116 26.9169 137.39 28.1631C135.857 29.5053 133.652 29.697 131.638 29.6011C129.721 29.6011 127.804 28.9301 126.27 27.7797C126.749 27.0128 127.229 26.2458 127.708 25.4789C129.721 26.821 132.309 27.3962 134.61 26.5334C135.473 26.3417 136.048 25.2872 135.377 24.5202C133.939 23.3698 131.83 23.8492 130.105 23.1781C128.667 22.7946 127.324 21.836 126.941 20.3021C126.749 19.2476 126.749 18.0014 127.42 17.1386ZM114.862 17.8096C111.698 18.6724 110.835 22.8905 112.753 25.2872C114.095 26.9169 116.683 27.2045 118.409 26.15C120.997 24.4244 120.997 20.1104 118.505 18.4807C117.45 17.7138 116.108 17.4262 114.862 17.8096ZM111.027 16.4675C113.52 14.2626 117.93 14.0708 120.134 16.7551C120.134 16.1799 120.134 15.7006 120.134 15.1254C121.189 15.1254 122.244 15.1254 123.298 15.1254C123.298 19.8228 123.298 24.6161 123.298 29.3135C122.244 29.3135 121.189 29.3135 120.134 29.3135C120.134 28.7383 120.134 28.259 120.134 27.6838C119.463 28.4507 118.601 29.1218 117.642 29.4094C115.437 29.8887 112.945 29.6011 111.219 28.1631C107.768 25.383 107.672 19.4393 111.027 16.4675ZM86.3897 16.851C88.307 13.8791 93.4838 14.1667 95.2093 17.2344C97.3184 14.0708 102.783 13.8791 104.988 17.0427C105.659 18.2889 105.946 19.7269 105.85 21.0691C105.85 23.8492 105.85 26.5334 105.85 29.3135C104.796 29.3135 103.741 29.3135 102.687 29.3135C102.687 26.5334 102.687 23.6574 102.687 20.7815C102.687 19.4393 101.824 18.0014 100.386 17.7138C98.5647 17.2344 96.4556 18.4807 96.2639 20.4939C96.0721 23.4657 96.168 26.4376 96.168 29.3135C95.1135 29.3135 94.059 29.3135 93.0044 29.3135C93.0044 26.6293 93.0044 24.0409 93.0044 21.3567C93.0044 20.0145 92.621 18.5765 91.3747 18.0014C90.2243 17.4262 88.8822 17.6179 87.9235 18.2889C86.869 18.8641 86.4855 20.2063 86.4855 21.3567C86.4855 24.0409 86.4855 26.6293 86.4855 29.3135C85.431 29.3135 84.3765 29.3135 83.322 29.3135C83.322 24.6161 83.322 19.8228 83.322 15.1254C84.3765 15.1254 85.431 15.1254 86.3897 15.1254C86.3897 15.7006 86.3897 16.2758 86.3897 16.851ZM143.909 10.8114C144.868 10.9073 145.922 10.9073 146.977 10.9073C146.977 12.2494 146.977 13.6874 146.977 15.1254C148.607 15.1254 150.332 15.1254 151.962 15.1254C151.962 16.084 151.962 17.0427 151.962 17.9055C150.332 17.9055 148.607 17.9055 146.977 17.9055C146.977 20.2063 146.977 22.4112 146.977 24.6161C146.977 25.4789 147.36 26.4376 148.223 26.6293C149.469 27.0128 150.716 26.4376 151.77 25.9582C152.058 26.821 152.345 27.7797 152.729 28.6425C151.003 29.697 148.798 29.7929 146.881 29.5053C145.156 29.0259 144.005 27.4921 143.909 25.7665C143.813 23.1781 143.909 20.5897 143.909 17.9055C142.855 17.9055 141.896 17.9055 140.937 17.9055C140.937 17.0427 140.937 16.084 140.937 15.1254C141.896 15.1254 142.855 15.1254 143.909 15.1254C143.909 13.6874 143.813 12.2494 143.909 10.8114ZM230.476 17.9055C227.409 18.96 226.737 23.3698 228.942 25.5748C230.38 27.1086 233.16 27.2045 234.694 25.7665C236.612 23.945 236.708 20.5897 234.79 18.7683C233.736 17.7138 231.914 17.3303 230.476 17.9055ZM236.036 9.37341C237.091 9.37341 238.146 9.37341 239.104 9.37341C239.104 16.084 239.104 22.6988 239.104 29.3135C238.05 29.3135 237.091 29.3135 236.036 29.3135C236.036 28.7383 236.036 28.259 236.036 27.6838C234.982 28.8342 233.544 29.697 232.01 29.6011C230.189 29.7929 228.271 29.2177 226.833 27.9714C223.574 25.0954 223.574 19.3435 226.833 16.4675C229.326 14.2626 233.736 14.0708 236.036 16.7551C236.036 14.3584 236.036 11.8659 236.036 9.37341Z" fill="black"/>
<path d="M242.939 27.9714C243.131 27.9714 243.226 27.9714 243.418 28.0673C243.61 28.1632 243.706 28.3549 243.802 28.4508C243.897 28.6425 243.897 28.8342 243.897 29.026C243.897 29.1218 243.897 29.3136 243.802 29.5053C243.706 29.6012 243.61 29.7929 243.418 29.8888C243.226 29.9846 243.131 29.9846 242.939 29.9846C242.747 29.9846 242.555 29.9846 242.46 29.8888C242.268 29.7929 242.172 29.6012 242.076 29.5053C241.98 29.3136 241.884 29.1218 241.884 29.026C241.884 28.8342 241.98 28.6425 242.076 28.4508C242.172 28.3549 242.268 28.1632 242.46 28.0673C242.555 27.9714 242.747 27.9714 242.939 27.9714ZM242.939 28.1632C242.747 28.1632 242.651 28.1632 242.46 28.259C242.364 28.3549 242.268 28.4508 242.172 28.5466C242.076 28.7384 242.076 28.8342 242.076 29.026C242.076 29.1218 242.076 29.2177 242.172 29.4094C242.268 29.5053 242.364 29.6012 242.46 29.697C242.651 29.7929 242.747 29.7929 242.939 29.7929C243.035 29.7929 243.226 29.7929 243.322 29.697C243.514 29.6012 243.61 29.5053 243.61 29.4094C243.706 29.2177 243.802 29.1218 243.802 29.026C243.802 28.8342 243.706 28.7384 243.61 28.5466C243.61 28.4508 243.514 28.3549 243.322 28.259C243.226 28.1632 243.035 28.1632 242.939 28.1632ZM243.226 29.1218L243.418 29.2177C243.418 29.3136 243.322 29.4094 243.226 29.5053C243.131 29.5053 243.035 29.6012 242.939 29.6012C242.747 29.6012 242.651 29.5053 242.555 29.4094C242.46 29.3136 242.364 29.1218 242.364 29.026C242.364 28.8342 242.46 28.7384 242.46 28.6425C242.46 28.5466 242.555 28.5466 242.651 28.4508C242.747 28.4508 242.843 28.4508 242.939 28.4508C243.035 28.4508 243.131 28.4508 243.226 28.4508C243.322 28.5466 243.322 28.6425 243.418 28.7384H243.226L243.131 28.6425C243.035 28.5466 243.035 28.5466 242.939 28.5466C242.843 28.5466 242.747 28.6425 242.651 28.6425C242.651 28.7384 242.555 28.8342 242.555 29.026C242.555 29.1218 242.555 29.2177 242.651 29.3136C242.747 29.4094 242.843 29.4094 242.939 29.4094C243.035 29.4094 243.035 29.4094 243.131 29.3136C243.226 29.3136 243.226 29.2177 243.226 29.1218Z" fill="#2B2A29"/>
<path d="M21.3926 43.5975C33.1994 43.5975 42.7707 34.0262 42.7707 22.2194C42.7707 10.4126 33.1994 0.841309 21.3926 0.841309C9.58577 0.841309 0.0144653 10.4126 0.0144653 22.2194C0.0144653 34.0262 9.58577 43.5975 21.3926 43.5975Z" fill="#EA001B"/>
<path d="M47.8516 43.5976C59.6584 43.5976 69.2297 34.0263 69.2297 22.2195C69.2297 10.4127 59.6584 0.84137 47.8516 0.84137C36.0448 0.84137 26.4734 10.4127 26.4734 22.2195C26.4734 34.0263 36.0448 43.5976 47.8516 43.5976Z" fill="#F79F1A"/>
<path fill-rule="evenodd" clip-rule="evenodd" d="M34.6221 5.44287C39.5112 9.37338 42.6748 15.4129 42.6748 22.2194C42.6748 28.93 39.5112 34.9696 34.6221 38.9001C29.637 34.9696 26.4734 28.93 26.4734 22.2194C26.4734 15.4129 29.637 9.37338 34.6221 5.44287Z" fill="#FF5F01"/>
</svg>
