<svg width="121" height="35" viewBox="0 0 121 35" fill="none" xmlns="http://www.w3.org/2000/svg">
<path d="M0 0.153076C3.72823 0.217356 7.39219 0.153076 11.1204 0.153076C12.856 0.153076 14.5915 1.05299 15.5557 2.53143C16.4557 3.75275 16.7771 5.29547 17.227 6.77391C18.5769 11.2735 19.8625 15.7731 21.2124 20.337C21.2766 20.7226 21.8552 20.9155 21.9837 20.4655C23.3336 15.9017 24.6835 11.3378 26.0334 6.77391C26.4833 5.16691 26.9333 3.43135 28.026 2.08147C28.6688 1.24583 29.6973 0.667315 30.7258 0.345916C31.6257 0.0887963 32.5899 0.217356 33.5541 0.153076C36.7681 0.217356 40.0464 0.153076 43.3247 0.217356C43.2604 11.5306 43.3247 22.9082 43.2604 34.2214C39.725 34.2214 36.2539 34.2857 32.7185 34.2214C32.7185 27.5363 32.7185 20.9155 32.7185 14.2304C32.6542 13.6519 31.69 13.7161 31.6257 14.2947C29.5688 20.9155 27.4475 27.5363 25.3906 34.2214C22.8836 34.2857 20.3767 34.2214 17.9341 34.2214C15.8129 27.6006 13.7559 20.9155 11.6347 14.2947C11.5061 13.7161 10.8633 13.7161 10.5419 14.0375C10.5419 20.7869 10.5419 27.472 10.5419 34.2214C7.00651 34.2857 3.53539 34.2214 0 34.2214C0 22.9082 0 11.5306 0 0.153076ZM48.0814 0.217356C51.6168 0.153076 55.1522 0.217356 58.6233 0.153076C58.6875 6.90247 58.6233 13.6519 58.6875 20.4012C58.9447 20.6584 59.5232 20.7226 59.716 20.2727C62.0301 15.3874 64.3442 10.4379 66.7225 5.55259C67.4296 4.00987 68.0724 2.40287 69.2295 1.18155C69.808 0.667315 70.4508 0.153076 71.2221 0.153076C74.8218 0.217356 78.4215 0.153076 82.0211 0.217356C82.0211 11.5306 82.0211 22.9082 82.0211 34.2214C78.4858 34.2857 74.9504 34.2857 71.4792 34.2214C71.4792 27.5363 71.4792 20.7869 71.415 14.1018C71.415 13.5233 70.4508 13.5233 70.3865 14.0375C68.1367 18.9228 65.9512 23.8081 63.7657 28.6291C63.0586 30.1075 62.4158 31.6502 61.4516 32.9358C60.8731 33.6429 60.0374 34.2857 59.0732 34.2214C55.4093 34.2214 51.7453 34.2857 48.0814 34.2214C48.0814 22.9082 48.0814 11.5306 48.0814 0.217356ZM87.1635 15.7731C98.1554 15.6445 109.212 15.7731 120.268 15.7088C119.882 17.2515 118.918 18.5371 117.889 19.6942C115.832 21.8797 112.876 23.2938 109.854 23.3581C105.805 23.3581 101.755 23.3581 97.7054 23.3581C97.7054 27.0221 97.7054 30.6218 97.7054 34.2857C94.1701 34.2214 90.6989 34.2857 87.1635 34.2214C87.1635 28.0506 87.1635 21.8797 87.1635 15.7731Z" fill="#3DA536"/>
<path d="M85.8137 0.217399C94.0415 0.153119 102.269 0.153119 110.561 0.217399C112.683 0.345959 114.804 1.24588 116.539 2.53148C118.982 4.45987 120.653 7.41675 120.975 10.5665C121.039 11.7235 120.975 12.8805 120.846 13.9733C115.768 14.0376 110.69 13.9733 105.676 14.0376C103.941 13.9733 102.205 14.1019 100.469 13.8447C96.6127 13.3305 92.7559 11.7235 89.9919 8.89519C87.6778 6.58111 86.2636 3.43139 85.8137 0.217399Z" fill="#008CD2"/>
</svg>
