<svg width="114" height="38" viewBox="0 0 114 38" fill="none" xmlns="http://www.w3.org/2000/svg">
<path d="M74.3133 0.799316C66.2401 0.799316 59.0255 4.98382 59.0255 12.715C59.0255 21.5812 71.8209 22.1936 71.8209 26.6478C71.8209 28.5232 69.6716 30.202 66.0008 30.202C60.7911 30.202 56.8974 27.8562 56.8974 27.8562L55.2313 35.6579C55.2313 35.6579 59.7168 37.6394 65.672 37.6394C74.4986 37.6394 81.4441 33.2494 81.4441 25.386C81.4441 16.0172 68.5954 15.4231 68.5954 11.2889C68.5954 9.81972 70.3598 8.20998 74.0201 8.20998C78.1501 8.20998 81.5196 9.91603 81.5196 9.91603L83.1501 2.38097C83.1501 2.38097 79.4838 0.799316 74.3133 0.799316ZM0.4511 1.368L0.255615 2.50537C0.255615 2.50537 3.65204 3.12697 6.71106 4.36692C10.6498 5.78878 10.9304 6.61651 11.5937 9.1874L18.8222 37.0529H28.5121L43.44 1.368H33.7724L24.1803 25.6304L20.2662 5.06445C19.9072 2.71069 18.089 1.368 15.8633 1.368H0.4511ZM47.3275 1.368L39.7436 37.0529H48.9625L56.5198 1.368H47.3275ZM98.7445 1.368C96.5215 1.368 95.3437 2.55816 94.4794 4.63793L80.9732 37.0529H90.6408L92.5112 31.6504H104.289L105.427 37.0529H113.957L106.515 1.368H98.7445ZM100.002 11.009L102.867 24.3997H95.1902L100.002 11.009Z" fill="#1434CB"/>
</svg>
