<svg width="31" height="20" viewBox="0 0 31 20" fill="none" xmlns="http://www.w3.org/2000/svg">
<path d="M30.2677 3.138C30.0979 2.53242 29.7672 1.98415 29.3108 1.55149C28.8414 1.10552 28.2662 0.786505 27.6393 0.624561C25.2933 0.00619463 15.8941 0.00619477 15.8941 0.00619477C11.9757 -0.0383868 8.05827 0.157694 4.16391 0.59333C3.53703 0.767239 2.96286 1.09338 2.49244 1.54274C2.03023 1.98747 1.69544 2.53588 1.52055 3.13675C1.10043 5.40003 0.896301 7.6981 0.910927 9.99999C0.895937 12.2998 1.09956 14.5971 1.52055 16.8632C1.69169 17.4616 2.02524 18.0075 2.4887 18.4485C2.95216 18.8895 3.5293 19.208 4.16391 19.3767C6.54118 19.9938 15.8941 19.9938 15.8941 19.9938C19.8175 20.0384 23.7399 19.8424 27.6393 19.4067C28.2662 19.2447 28.8414 18.9257 29.3108 18.4797C29.773 18.0388 30.1015 17.4903 30.2664 16.8932C30.6975 14.6308 30.9071 12.3318 30.8923 10.0287C30.9247 7.71592 30.7154 5.40605 30.2677 3.13675V3.138ZM12.906 14.2773V5.7239L20.7261 10.0012L12.906 14.2773Z" fill="#080E0D"/>
</svg>
