<svg width="2101" height="276" viewBox="0 0 2101 276" fill="none" xmlns="http://www.w3.org/2000/svg">
<path d="M161.028 0V34.2L123.848 33.9V0H161.028ZM72.2748 0V34.2L35.0942 33.9V0H72.2748ZM188.914 175.2C187.315 183.6 183.817 191.3 178.419 198.3C173.222 205.1 166.825 211 159.229 216C151.633 220.8 143.338 224.5 134.342 227.1C125.347 229.9 116.452 231.4 107.656 231.6H90.2654C79.0712 231.4 68.077 229.6 57.2826 226.2C46.4882 222.8 36.8932 217.6 28.4976 210.6C20.102 203.4 13.2056 194.3 7.80842 183.3C2.61114 172.3 0.0124934 159 0.0124934 143.4C-0.187402 129.2 2.01145 116.7 6.60905 105.9C11.2066 95.1 17.6033 86.1 25.799 78.9C34.1946 71.7 43.9895 66.3 55.1837 62.7C66.3778 59.1 78.3716 57.3 91.1649 57.3H105.557C119.35 57.3 131.644 59.6 142.438 64.2C153.233 68.8 162.228 75 169.424 82.8C176.82 90.6 182.317 99.6 185.915 109.8C189.713 119.8 191.413 130.3 191.013 141.3L190.713 151.5H29.9968C29.9968 161.7 32.0957 170.3 36.2936 177.3C40.6913 184.3 46.0884 190 52.4851 194.4C59.0817 198.8 66.078 202 73.4741 204C81.0702 205.8 88.0665 206.7 94.4632 206.7H106.457C111.055 206.7 115.952 206.1 121.149 204.9C126.347 203.7 131.344 201.9 136.141 199.5C141.139 196.9 145.537 193.7 149.335 189.9C153.332 185.9 156.231 181.1 158.03 175.5L188.914 175.2ZM92.3643 82.2C86.7672 82.2 80.4705 83 73.4741 84.6C66.6777 86 60.1811 88.5 53.9843 92.1C47.7876 95.7 42.4903 100.5 38.0926 106.5C33.6949 112.5 31.0963 120 30.2967 129H160.729C159.929 121.4 157.83 114.7 154.432 108.9C151.234 103.1 147.136 98.3 142.138 94.5C137.141 90.5 131.444 87.5 125.047 85.5C118.85 83.3 112.354 82.2 105.557 82.2H92.3643Z" fill="#33333D"/>
<path d="M255.175 159.9V224.7H227.289V65.7H255.175V134.4H371.214V66L399.099 65.7V224.7H371.514V159.9H255.175Z" fill="#33333D"/>
<path d="M475.227 90.6V224.7H447.042V65.7H590.966V90.6H475.227Z" fill="#33333D"/>
<path d="M807.547 179.4C804.549 188 800.151 195.6 794.354 202.2C788.557 208.8 781.561 214.3 773.365 218.7C765.369 223.1 756.374 226.4 746.379 228.6C736.384 230.8 725.89 231.9 714.896 231.9C700.503 231.9 687.41 230.1 675.616 226.5C663.822 223.1 653.627 217.8 645.032 210.6C636.636 203.4 630.04 194.3 625.242 183.3C620.645 172.3 618.246 159.4 618.046 144.6C618.046 129.8 620.445 116.9 625.242 105.9C630.24 94.7 637.036 85.5 645.632 78.3C654.427 70.9 664.822 65.4 676.815 61.8C688.809 58 701.902 56.1 716.095 56.1C732.486 56.1 746.779 58.4 758.973 63C771.366 67.6 781.461 74.2 789.257 82.8C797.252 91.2 802.949 101.4 806.348 113.4C809.746 125.4 810.645 138.7 809.046 153.3H647.131C649.33 171.5 656.226 185 667.82 193.8C679.614 202.6 695.306 207 714.896 207C729.288 207 741.981 204.8 752.976 200.4C763.97 195.8 772.066 188.7 777.263 179.1L807.547 179.4ZM716.695 81C698.304 81 682.912 85 670.519 93C658.325 100.8 650.829 112.9 648.03 129.3H781.161C780.961 121.7 779.062 114.9 775.464 108.9C772.066 102.9 767.468 97.9 761.671 93.9C755.874 89.7 749.078 86.5 741.282 84.3C733.486 82.1 725.29 81 716.695 81Z" fill="#33333D"/>
<path d="M951.249 230.7C937.057 230.9 923.764 228.9 911.37 224.7C899.177 220.5 888.582 214.3 879.587 206.1V276L851.701 275.7V65.7H879.587L878.088 85.2C887.083 76.6 897.677 69.9 909.871 65.1C922.265 60.3 935.757 57.9 950.35 57.9C963.943 57.9 976.536 59.7 988.13 63.3C999.724 66.7 1009.72 71.9 1018.11 78.9C1026.71 85.9 1033.41 94.8 1038.2 105.6C1043.2 116.2 1045.8 128.8 1046 143.4C1046 158.4 1043.6 171.4 1038.8 182.4C1034.01 193.4 1027.41 202.5 1019.01 209.7C1010.62 216.9 1000.62 222.2 989.03 225.6C977.436 229 964.842 230.7 951.249 230.7ZM879.887 144.3C880.087 155.3 881.886 164.6 885.284 172.2C888.882 179.8 893.68 186 899.676 190.8C905.873 195.6 913.169 199.1 921.565 201.3C930.16 203.5 939.556 204.6 949.75 204.6C959.745 204.6 968.84 203.5 977.036 201.3C985.432 199.1 992.528 195.6 998.325 190.8C1004.32 186 1008.92 179.8 1012.12 172.2C1015.52 164.6 1017.31 155.3 1017.51 144.3C1017.31 133.3 1015.52 124 1012.12 116.4C1008.92 108.6 1004.42 102.3 998.625 97.5C992.828 92.5 985.831 88.9 977.636 86.7C969.44 84.5 960.345 83.4 950.35 83.4C940.155 83.4 930.76 84.6 922.165 87C913.769 89.2 906.373 92.8 899.976 97.8C893.779 102.6 888.882 108.9 885.284 116.7C881.886 124.3 880.087 133.5 879.887 144.3Z" fill="#33333D"/>
<rect x="1146" y="38" width="954.098" height="200" rx="100" fill="#2CE07D"/>
<path d="M1329.38 152.312C1329.38 157.569 1327.8 161.424 1324.66 163.877C1321.51 166.33 1317.48 167.556 1312.59 167.556H1265.67V111.836H1309.02C1311.61 111.836 1313.99 112.152 1316.15 112.783C1318.32 113.413 1320.18 114.395 1321.72 115.726C1323.26 116.988 1324.45 118.635 1325.29 120.667C1326.2 122.7 1326.65 125.083 1326.65 127.816C1326.58 130.97 1325.99 133.423 1324.87 135.176C1323.82 136.928 1322.28 138.224 1320.25 139.066C1322.91 139.836 1325.08 141.343 1326.76 143.586C1328.43 145.829 1329.31 148.738 1329.38 152.312ZM1275.43 136.122L1306.39 136.227C1309.54 136.157 1312.06 135.631 1313.95 134.65C1315.84 133.669 1316.82 131.636 1316.89 128.552C1316.89 126.59 1316.57 125.083 1315.95 124.032C1315.32 122.91 1314.48 122.104 1313.43 121.614C1312.38 121.053 1311.12 120.738 1309.65 120.667C1308.25 120.527 1306.74 120.457 1305.13 120.457H1275.43V136.122ZM1275.43 158.935H1309.33C1312.9 158.935 1315.49 158.445 1317.1 157.464C1318.71 156.482 1319.55 154.52 1319.62 151.576C1319.55 148.703 1318.71 146.845 1317.1 146.004C1315.56 145.093 1313.04 144.638 1309.54 144.638H1275.43V158.935Z" fill="#33333D"/>
<path d="M1400.4 149.263C1399.91 152.768 1398.76 155.852 1396.94 158.515C1395.19 161.108 1392.91 163.281 1390.11 165.033C1387.39 166.785 1384.24 168.082 1380.67 168.923C1377.1 169.834 1373.25 170.29 1369.12 170.29C1364.09 170.29 1359.54 169.659 1355.48 168.397C1351.49 167.206 1348.06 165.348 1345.19 162.825C1342.32 160.302 1340.12 157.113 1338.58 153.258C1337.04 149.403 1336.24 144.883 1336.17 139.696C1336.17 134.51 1336.94 129.989 1338.48 126.134C1340.02 122.209 1342.19 118.985 1344.98 116.462C1347.85 113.869 1351.32 111.942 1355.37 110.68C1359.43 109.348 1363.95 108.682 1368.91 108.682C1373.04 108.682 1376.89 109.138 1380.46 110.049C1384.1 110.96 1387.32 112.292 1390.11 114.044C1392.91 115.796 1395.22 118.004 1397.04 120.667C1398.86 123.261 1400.01 126.31 1400.5 129.814H1390.01C1389.59 127.781 1388.75 125.994 1387.49 124.452C1386.3 122.91 1384.76 121.614 1382.87 120.562C1381.05 119.511 1378.92 118.705 1376.47 118.144C1374.09 117.584 1371.54 117.303 1368.81 117.303C1361.39 117.373 1355.79 119.196 1352.02 122.77C1348.24 126.345 1346.28 131.952 1346.14 139.591C1346.28 147.161 1348.27 152.733 1352.12 156.307C1356.04 159.882 1361.71 161.669 1369.12 161.669C1374.65 161.669 1379.3 160.653 1383.08 158.62C1386.86 156.588 1389.17 153.469 1390.01 149.263H1400.4Z" fill="#33333D"/>
<path d="M1471.19 88.8125V100.798L1458.17 100.692V88.8125H1471.19ZM1440.12 88.8125V100.798L1427.11 100.692V88.8125H1440.12ZM1480.95 150.21C1480.39 153.153 1479.17 155.852 1477.28 158.305C1475.46 160.688 1473.22 162.755 1470.56 164.507C1467.9 166.19 1465 167.486 1461.85 168.397C1458.7 169.379 1455.59 169.904 1452.51 169.974H1446.42C1442.5 169.904 1438.65 169.273 1434.87 168.082C1431.1 166.89 1427.74 165.068 1424.8 162.615C1421.86 160.092 1419.45 156.903 1417.56 153.048C1415.74 149.193 1414.83 144.532 1414.83 139.066C1414.76 134.089 1415.53 129.709 1417.14 125.924C1418.75 122.139 1420.99 118.985 1423.85 116.462C1426.79 113.939 1430.22 112.047 1434.14 110.785C1438.06 109.523 1442.26 108.893 1446.73 108.893H1451.77C1456.6 108.893 1460.9 109.699 1464.68 111.311C1468.46 112.923 1471.61 115.095 1474.13 117.829C1476.72 120.562 1478.64 123.716 1479.9 127.291C1481.23 130.795 1481.82 134.475 1481.68 138.33L1481.58 141.904H1425.32C1425.32 145.479 1426.06 148.492 1427.53 150.945C1429.07 153.399 1430.96 155.396 1433.2 156.938C1435.5 158.48 1437.95 159.601 1440.54 160.302C1443.2 160.933 1445.65 161.248 1447.89 161.248H1452.09C1453.7 161.248 1455.41 161.038 1457.23 160.618C1459.05 160.197 1460.8 159.566 1462.48 158.725C1464.23 157.814 1465.77 156.693 1467.1 155.361C1468.5 153.959 1469.51 152.277 1470.14 150.315L1480.95 150.21ZM1447.15 117.619C1445.2 117.619 1442.99 117.899 1440.54 118.46C1438.16 118.95 1435.89 119.826 1433.72 121.088C1431.55 122.35 1429.7 124.032 1428.16 126.134C1426.62 128.237 1425.71 130.865 1425.43 134.019H1471.08C1470.8 131.356 1470.07 129.008 1468.88 126.975C1467.76 124.943 1466.33 123.261 1464.58 121.929C1462.83 120.527 1460.83 119.476 1458.59 118.775C1456.43 118.004 1454.15 117.619 1451.77 117.619H1447.15Z" fill="#33333D"/>
<path d="M1556.67 120.773V167.556H1546.91V111.836H1603.16V167.556H1593.51V120.773H1556.67Z" fill="#33333D"/>
<path d="M1654.78 169.659C1649.81 169.729 1645.16 169.028 1640.82 167.556C1636.55 166.084 1632.84 163.912 1629.69 161.038V185.534L1619.93 185.429V111.836H1629.69L1629.17 118.67C1632.32 115.656 1636.03 113.308 1640.3 111.626C1644.63 109.944 1649.36 109.103 1654.46 109.103C1659.22 109.103 1663.63 109.734 1667.69 110.995C1671.75 112.187 1675.25 114.009 1678.18 116.462C1681.19 118.915 1683.54 122.034 1685.22 125.819C1686.97 129.534 1687.87 133.949 1687.94 139.066C1687.94 144.322 1687.11 148.878 1685.43 152.733C1683.75 156.588 1681.44 159.777 1678.5 162.3C1675.56 164.823 1672.06 166.68 1668 167.872C1663.95 169.063 1659.54 169.659 1654.78 169.659ZM1629.8 139.381C1629.87 143.236 1630.5 146.495 1631.69 149.158C1632.95 151.822 1634.63 153.994 1636.73 155.676C1638.9 157.358 1641.45 158.585 1644.39 159.356C1647.4 160.127 1650.69 160.512 1654.25 160.512C1657.75 160.512 1660.94 160.127 1663.81 159.356C1666.74 158.585 1669.23 157.358 1671.26 155.676C1673.36 153.994 1674.97 151.822 1676.08 149.158C1677.27 146.495 1677.9 143.236 1677.97 139.381C1677.9 135.526 1677.27 132.267 1676.08 129.604C1674.97 126.87 1673.39 124.662 1671.36 122.98C1669.33 121.228 1666.88 119.967 1664.02 119.196C1661.15 118.425 1657.96 118.039 1654.46 118.039C1650.9 118.039 1647.61 118.46 1644.6 119.301C1641.66 120.072 1639.07 121.333 1636.83 123.085C1634.66 124.768 1632.95 126.975 1631.69 129.709C1630.5 132.372 1629.87 135.596 1629.8 139.381Z" fill="#33333D"/>
<path d="M1763.91 139.907C1763.84 145.023 1762.97 149.509 1761.29 153.363C1759.68 157.148 1757.37 160.302 1754.36 162.825C1751.42 165.348 1747.89 167.241 1743.76 168.502C1739.7 169.764 1735.19 170.395 1730.22 170.395C1725.18 170.395 1720.64 169.764 1716.58 168.502C1712.52 167.311 1709.02 165.454 1706.08 162.93C1703.21 160.407 1700.97 157.218 1699.37 153.363C1697.76 149.509 1696.92 144.988 1696.85 139.801C1696.85 134.615 1697.65 130.094 1699.26 126.239C1700.87 122.315 1703.11 119.09 1705.98 116.567C1708.92 113.974 1712.41 112.047 1716.47 110.785C1720.6 109.453 1725.15 108.788 1730.12 108.788C1735.15 108.788 1739.74 109.418 1743.87 110.68C1747.99 111.942 1751.53 113.869 1754.47 116.462C1757.47 118.985 1759.78 122.209 1761.39 126.134C1763.07 130.059 1763.91 134.65 1763.91 139.907ZM1706.82 139.591C1706.96 147.161 1709.02 152.733 1713.01 156.307C1717.07 159.812 1722.8 161.564 1730.22 161.564C1737.64 161.564 1743.41 159.812 1747.54 156.307C1751.67 152.803 1753.8 147.231 1753.94 139.591C1753.8 131.952 1751.63 126.38 1747.43 122.875C1743.24 119.301 1737.43 117.513 1730.01 117.513C1722.59 117.513 1716.89 119.301 1712.9 122.875C1708.99 126.38 1706.96 131.952 1706.82 139.591Z" fill="#33333D"/>
<path d="M1833.02 149.263C1832.53 152.768 1831.37 155.852 1829.55 158.515C1827.8 161.108 1825.53 163.281 1822.73 165.033C1820 166.785 1816.85 168.082 1813.29 168.923C1809.72 169.834 1805.87 170.29 1801.74 170.29C1796.7 170.29 1792.15 169.659 1788.1 168.397C1784.11 167.206 1780.68 165.348 1777.81 162.825C1774.94 160.302 1772.74 157.113 1771.2 153.258C1769.66 149.403 1768.86 144.883 1768.79 139.696C1768.79 134.51 1769.55 129.989 1771.09 126.134C1772.63 122.209 1774.8 118.985 1777.6 116.462C1780.47 113.869 1783.93 111.942 1787.99 110.68C1792.05 109.348 1796.56 108.682 1801.53 108.682C1805.66 108.682 1809.51 109.138 1813.08 110.049C1816.71 110.96 1819.93 112.292 1822.73 114.044C1825.53 115.796 1827.84 118.004 1829.66 120.667C1831.48 123.261 1832.63 126.31 1833.12 129.814H1822.63C1822.21 127.781 1821.37 125.994 1820.11 124.452C1818.92 122.91 1817.38 121.614 1815.49 120.562C1813.67 119.511 1811.54 118.705 1809.09 118.144C1806.71 117.584 1804.15 117.303 1801.43 117.303C1794.01 117.373 1788.41 119.196 1784.63 122.77C1780.85 126.345 1778.9 131.952 1778.76 139.591C1778.9 147.161 1780.89 152.733 1784.74 156.307C1788.66 159.882 1794.32 161.669 1801.74 161.669C1807.27 161.669 1811.92 160.653 1815.7 158.62C1819.48 156.588 1821.79 153.469 1822.63 149.263H1833.02Z" fill="#33333D"/>
<path d="M1880.93 120.773V167.556H1871.06V120.773H1844.72V111.836H1907.06V120.773H1880.93Z" fill="#33333D"/>
<path d="M1980.43 139.907C1980.36 145.023 1979.48 149.509 1977.8 153.363C1976.19 157.148 1973.88 160.302 1970.87 162.825C1967.94 165.348 1964.4 167.241 1960.27 168.502C1956.22 169.764 1951.7 170.395 1946.74 170.395C1941.7 170.395 1937.15 169.764 1933.09 168.502C1929.03 167.311 1925.53 165.454 1922.6 162.93C1919.73 160.407 1917.49 157.218 1915.88 153.363C1914.27 149.509 1913.43 144.988 1913.36 139.801C1913.36 134.615 1914.16 130.094 1915.77 126.239C1917.38 122.315 1919.62 119.09 1922.49 116.567C1925.43 113.974 1928.93 112.047 1932.99 110.785C1937.11 109.453 1941.66 108.788 1946.63 108.788C1951.67 108.788 1956.25 109.418 1960.38 110.68C1964.51 111.942 1968.04 113.869 1970.98 116.462C1973.99 118.985 1976.3 122.209 1977.91 126.134C1979.59 130.059 1980.43 134.65 1980.43 139.907ZM1923.33 139.591C1923.47 147.161 1925.53 152.733 1929.52 156.307C1933.58 159.812 1939.32 161.564 1946.74 161.564C1954.15 161.564 1959.92 159.812 1964.05 156.307C1968.18 152.803 1970.32 147.231 1970.46 139.591C1970.32 131.952 1968.15 126.38 1963.95 122.875C1959.75 119.301 1953.94 117.513 1946.53 117.513C1939.11 117.513 1933.41 119.301 1929.42 122.875C1925.5 126.38 1923.47 131.952 1923.33 139.591Z" fill="#33333D"/>
</svg>
